# xmcd
#
# Track frame offsets:
#	150
#	15106
#	35501
#	50430
#	73223
#	91906
#	112475
#	130425
#	154711
#	175497
#	198567
#	229340
#
# Disc length: 3432 seconds
#
# Revision: 1
# Processed by: cddbd v1.5.1PL2 Copyright (c) Steve Scherf et al.
# Submitted via: audiograbber 1.83.01
#
DISCID=aa0d660c
DTITLE=VALENTINO - Mirise mi na tebe and Hitovi
DYEAR=2004
DGENRE=Pop
TTITLE0=Mirise mi na tebe
TTITLE1=Megamix
TTITLE2=Volim te jos (extra loop mix)
TTITLE3=Oka tvoja dva
TTITLE4=Bez tebe
TTITLE5=Samo sklopi okice (extra loop mix)
TTITLE6=U vrelini noci
TTITLE7=Nema je nema
TTITLE8=Potonule ladje
TTITLE9=Reci kraj mojim rukama
TTITLE10=Kad me vise ne bude
TTITLE11=Kad sam prvi put video tebe
EXTD=
EXTT0=
EXTT1=
EXTT2=
EXTT3=
EXTT4=
EXTT5=
EXTT6=
EXTT7=
EXTT8=
EXTT9=
EXTT10=
EXTT11=
PLAYORDER=
